<?xml version="1.0" encoding="UTF-8"?>
<svg id="Layer_2" data-name="Layer 2" xmlns="http://www.w3.org/2000/svg" viewBox="0 0 2048 2048">
  <defs>
    <style>
      .cls-1 {
        fill: #3c6e71;
      }

      .cls-2 {
        fill: #284b63;
      }

      .cls-3 {
        fill: #9ad1d4;
      }
    </style>
  </defs>
  <path class="cls-1" d="M459.53,931.22c65.66-88.82,223.76-229.1,422.29-217.58,1.11.05,2.15.11,3.05.2,1.65.15,2.78.36,3.24.66.49.31.25.71-.41,1.2-32.78,19.12-96.07,75.13-101.48,154.93-1.14,13.54-.72,25.37.49,36.68.29,3.47,1.37,8.63.88,10.52-.39,1.98-2.51,1.19-3.88.52-30.41-14.99-66.88-26.42-101.59-31.26-58.82-8.63-121.06-.91-175.95,21.5-15.92,6.43-30.37,13.65-43.62,21.33-.7.4-1.47.85-2.11,1.13-.49.22-.8.29-.91.18h-.01Z"/>
  <path class="cls-3" d="M856.49,1030.07c33.11,30.17,134.91,80.09,132.74,82.75-1.48,1.64-6.07,3.3-10.28,4.64-7.51,2.37-15.43,3.91-23.82,4.99-31.49,3.49-56.47,1.61-82.57-1.5-69.01-9.59-113.85-44.29-182.93-66.53-110.75-37.69-195.09-49.05-330.46,27.9-4.38,2.5-9.49,6.15-13.48,7.82-.26.09-.54.11-.59.09-.56-.05-.26-.83.45-2.02.34-.57.76-1.22,1.22-1.91,36.61-56.71,104.7-113.68,175.95-139.34,59.63-22.35,129.43-31.61,200.79-8.62,18.13,6.22,34.3,12.56,51.31,20.33,14.53,6.76,22.22,11.69,30.01,16.44,2.62,1.6,4.7,3.32,6.84,5.79,13.22,17.48,27.87,34.74,44.67,49.04l.14.12Z"/>
  <path class="cls-1" d="M1069.84,934.78c1.01-1.1,20.73-5.81,27.21-6.65,94.94-12.08,147.37,32.48,239.8,61.18,78.9,25.19,166.22,37.62,267.54-9.99,27.44-12.43,53.25-29.73,73.66-47.22,1.23-.97,2.55-2.22,3.57-2.91.82-.59,1.08-.59.94-.15-.06.2-.19.47-.35.79-43.97,85.66-181.82,222.39-357.75,173.74-29.47-8.11-55.96-21.55-77.02-34.29-1.21-.78-2.06-1.51-3.13-2.78-5.64-7.46-9.78-14.88-15.96-22.78-15.76-21.23-35.18-39.38-53.7-52.15-30.83-21.66-64.94-34.83-100.7-53.8-1.87-1.09-4.36-2.73-4.12-2.98Z"/>
  <path class="cls-3" d="M1266.7,1125.63c.89-.49,2.73.31,3.88.8,44.02,20.46,120.85,35.57,182.32,23.31,49.24-7.49,101.1-34.35,125.6-51.46,1.18-.73,1.95-1.1,2.17-.95.45.15-1.02,2.21-1.5,2.91-50.88,77.57-179.68,209.6-355.84,226.68-21.46,2.16-40.77,4.09-59.65,3.03-.82-.29-.59-.81.41-1.52,35.64-20.2,82.69-66.13,96.68-126.58,7.87-31.3,6.67-58.33,5.33-72.78-.13-1.15-.24-2.84.57-3.41l.04-.03Z"/>
  <path class="cls-2" d="M282.76,1230.47c16.43-18.37,37.4-36.8,58.87-50.96,57.84-38.67,118.71-49.77,151.92-51.19,11.31.1,24,1.04,36.71,2.32,87.37,7.84,148.48,42.48,247.12,80.34,21.12,8.53,60.45,24.21,93.06,32.76,48.8,10.26,129.82,18.35,179.51-16.57,15.07-10.74,26.54-25.48,32.56-42.67,5.35-14.96,3.25-31.02-2.15-45.72-15.81-42.64-63.81-64.02-78.42-69.78-1.62-.63-2.28-.74-1.25.14,1.15.91,2.6,1.95,3.98,2.91,12.8,8.98,33.27,24.58,33.47,44.82.54,7.4-1.2,16.29-4.32,22.4-21.41,40.98-92.2,35.09-137.7,30.63-30.52-3.52-53.63-11.79-88.69-25.24-22.32-8.47-51.46-20.44-71.12-29.15-29.04-13.14-54.77-23.02-87.69-30.61-90.79-24.59-207.48-25.4-308.92,59.01-44.36,35.76-80.55,90.43-94.9,137.65,0,0,18.49-29.38,37.97-51.08Z"/>
  <path class="cls-1" d="M244.79,1281.54c203.79-175.13,357.58-64.85,593.84,29.89,9.38,3.57,19.47,7.29,28.68,9.48,68.47,14.93,140.92-3.11,189.79-65.16,4.39-5.39,8.15-11.81,12.21-17.23,15.26-20.37,16.62-65.79,15.01-61.18-26.53,76.12-109.67,78.25-169.79,72.23-42.25-2.96-89.47-20.62-132.23-37.21-126.94-49.24-172.91-79.25-280.32-84.17-61.8-2.37-159.82,33.68-217.85,99.04-17.39,18.7-39.34,54.32-39.34,54.32Z"/>
  <path class="cls-2" d="M1755.35,749.77c-37.73,72.53-120.83,143.82-222.4,155.96-68.38,8.17-106.16-3.16-171.34-25.49-103.08-35.32-226.05-111.45-327.23-74.1-22.8,8.42-57.58,28.57-65.56,58.15-1.28,5.45-1.64,11.39-1.52,16.98.63,36.48,25.98,56.42,59.07,75.71,5.92,3.45,4.58,2.15,1.82-.85-12.04-13.1-16.34-32.98-12.11-47.36,8.97-25.08,41.16-32.26,66.1-31.92,21.96.16,43.17,2.1,66.13,6.01,6.6,1.14,13.68,2.55,20.42,4.07,63.78,13.58,99.69,41.01,163.34,60.74,32.92,10.16,74.54,19.31,119.02,21.13,141.05,2.14,255.66-90.09,304.28-219.04l-.02.02Z"/>
  <path class="cls-3" d="M852.13,1316.37c132.89,41.47,280.88,19.44,345.63-69.71,12.99-18.3,25.95-40.88,29.9-64.68,1.5-10.35,1.69-21.7,1.1-31.95-3.89-58.17-27.65-93.63-75.73-125.66-36.26-24.34-76.77-38.87-111.83-59.33-15.53-10.03-33.92-21.11-47.13-31.89-17.19-13.61-27.95-32.86-25.08-58.79,3.99-50.32,72.43-77.39,119.66-77.55,16.94.09,34.76,2.05,51.41,4.43,12.83,1.92,20.84,4.69,32.73,7.97,78,20.1,190.79,83.91,281.39,97.29,38.76,4.65,113.6,7.24,182.48-34.43,26.09-15.19,50.64-33.39,69.67-53.91,15.94-16.2,39.74-48.71,48.73-67.39.12-.25.48-1.07.33-1.1-.26-.05-.95.47-2.05,1.18-17.02,11.31-31.58,27.13-54.64,43.9-18.34,14.08-51.05,31.07-81.08,39.87-39.31,11.63-79.67,18.34-133.24,9.56-30.96-5.48-69.39-14.96-94.84-25.72-16.57-6.53-30.72-12.69-49.59-19.89-68.09-26.73-201.83-111.97-349.81-80.12-27.21,5.98-47.53,13.07-70.45,23.99-36.51,16.1-71.88,48.46-87.3,93.63-9.4,25.6-9.45,45.72-6.45,71.12,1.91,14.46,4.76,28.94,11.49,42.06,35.31,63.23,110.98,96.24,167.61,122.95,27.49,11.75,61.87,35.56,75.03,69.06,2.34,5.26,3.09,10.85,3.6,17,.79,8.52.94,17.27.36,25.6-4.44,80.97-85.97,123.42-112.75,131.46-45.59,15.57-119.15,1.04-119.15,1.04Z"/>
</svg>